<?xml version="1.0" encoding="utf-8"?>
<!-- Generator: Adobe Illustrator 20.0.0, SVG Export Plug-In . SVG Version: 6.00 Build 0)  -->
<svg version="1.1" id="Layer_1" xmlns="http://www.w3.org/2000/svg" xmlns:xlink="http://www.w3.org/1999/xlink" x="0px" y="0px"
	 viewBox="0 0 400 100" style="enable-background:new 0 0 400 100;" xml:space="preserve">
<style type="text/css">
	.st0{fill:#CFD8E4;}
	.st1{fill:#30449C;}
	.st2{fill:#49A5DC;}
	.st3{fill:#FFFFFF;stroke:#FFFFFF;stroke-miterlimit:10;}
	.st4{fill:#49A5DC;stroke:#49A5DC;stroke-miterlimit:10;}
</style>
<g>
	<path class="st0" d="M62.7,24.5H45.8c-2.4,0-4.3,1.9-4.3,4.3v14.9c0,2.4,1.9,4.3,4.3,4.3h16.9c2.4,0,4.3-1.9,4.3-4.3l0,0V28.8
		C67,26.4,65.1,24.5,62.7,24.5z M54.3,40.1c-2.2,0-3.9-1.7-3.9-3.9s1.7-3.9,3.9-3.9c2.2,0,3.9,1.7,3.9,3.9S56.4,40.1,54.3,40.1z"/>
	<path class="st1" d="M31.2,75.3H48c2.4,0,4.3-1.9,4.3-4.3l0,0V56.1c0-2.4-1.9-4.3-4.3-4.3l0,0H31.2c-2.4,0-4.3,1.9-4.3,4.3l0,0V71
		C26.9,73.4,28.8,75.3,31.2,75.3L31.2,75.3z M35.2,65.5l3.3-5.2c0.4-0.6,1.1-0.8,1.7-0.4c0.2,0.1,0.3,0.2,0.4,0.4l3.3,5.2
		c0.4,0.6,0.3,1.3-0.3,1.7c-0.2,0.2-0.5,0.2-0.7,0.2h-6.6c-0.7,0-1.3-0.5-1.3-1.2C35,66,35.1,65.8,35.2,65.5z"/>
	<path class="st2" d="M77.4,51.9H60.5c-2.4,0-4.3,1.9-4.3,4.3l0,0V71c0,2.4,1.9,4.3,4.3,4.3l0,0h16.9c2.4,0,4.3-1.9,4.3-4.3l0,0
		V56.1C81.6,53.8,79.7,51.9,77.4,51.9L77.4,51.9z M72.8,65.8c0,0.9-0.7,1.6-1.6,1.6l0,0h-4.6c-0.9,0-1.6-0.7-1.6-1.6l0,0v-4.5
		c0-0.9,0.7-1.6,1.6-1.7c0,0,0,0,0,0h4.5c0.9,0,1.7,0.7,1.7,1.6c0,0,0,0,0,0V65.8z"/>
</g>
<g>
	<path class="st3" d="M115.2,49.9c3.6,0.5,6.3,1.9,8.1,4.1c1.8,2.2,2.7,4.9,2.7,8.1c0,1.8-0.3,3.5-1,4.9c-0.7,1.5-1.6,2.7-2.8,3.8
		c-1.2,1.1-2.6,1.9-4.1,2.5c-1.5,0.6-3.2,0.9-4.9,1c-0.9,0.1-1.6,0.1-2.3,0.1c-0.7,0-1.4,0-2.3,0H95.6V28h11.7c0.9,0,1.7,0,2.4,0
		c0.7,0,1.7,0,2.8,0.1c3.5,0.2,6.3,1.3,8.5,3.2c2.2,1.9,3.2,4.5,3.2,7.7c0,3-0.8,5.4-2.4,7.3C120.3,48.3,118.1,49.5,115.2,49.9z
		 M97.1,49.4h11.2c0.5,0,1.1,0,1.7,0c0.6,0,1.3,0,2-0.1c1.2-0.1,2.4-0.3,3.7-0.6c1.3-0.3,2.4-0.9,3.5-1.6c1.1-0.8,1.9-1.8,2.6-3
		c0.6-1.2,1-2.8,1-4.6c0-1.8-0.3-3.4-0.9-4.6c-0.6-1.2-1.5-2.3-2.5-3c-1.1-0.8-2.2-1.3-3.5-1.7c-1.3-0.4-2.6-0.6-4-0.6
		c-0.8,0-1.5-0.1-2.1-0.1c-0.6,0-1.4,0-2.3,0H97.1V49.4z M112.6,72.9c1.4-0.1,2.9-0.4,4.3-0.8c1.4-0.4,2.7-1.1,3.8-2
		c1.1-0.9,2-2,2.7-3.2c0.7-1.3,1-2.9,1-4.7c0-1.3-0.2-2.7-0.6-4c-0.4-1.3-1-2.5-1.9-3.5c-0.9-1-2.1-1.9-3.6-2.6
		c-1.5-0.7-3.4-1.1-5.6-1.2c-0.8,0-1.4-0.1-1.9-0.1c-0.5,0-1,0-1.6,0H97.1v22.1h12.5c0.5,0,1.1,0,1.6,0
		C111.7,72.9,112.2,72.9,112.6,72.9z"/>
	<path class="st3" d="M134.7,66.3c0,1.2,0,2.1,0,2.8c0,0.7,0,1.3,0.1,1.8c0.1,1.1,0.4,1.8,0.9,2.2c0.5,0.3,1.5,0.4,2.9,0.2v1.3
		c-0.4,0.1-0.7,0.1-1,0.1c-0.3,0-0.6,0-1,0c-0.9,0-1.6-0.2-2.3-0.7c-0.6-0.5-1-1.4-1-2.7c0-0.7-0.1-1.3-0.1-2s0-1.7,0-3V25h1.5V66.3
		z"/>
	<path class="st3" d="M158.9,38.1c2.5,0,4.8,0.4,6.8,1.3c2,0.9,3.8,2.2,5.2,3.8c1.4,1.6,2.6,3.6,3.4,5.9c0.8,2.3,1.2,4.8,1.2,7.7
		c0,2.8-0.4,5.3-1.2,7.6c-0.8,2.3-1.9,4.2-3.4,5.8c-1.4,1.6-3.2,2.9-5.2,3.8c-2,0.9-4.3,1.3-6.8,1.3c-2.5,0-4.7-0.4-6.8-1.3
		c-2.1-0.9-3.8-2.2-5.2-3.8c-1.4-1.6-2.6-3.6-3.4-5.8c-0.8-2.3-1.2-4.8-1.2-7.6c0-2.8,0.4-5.4,1.2-7.7c0.8-2.3,1.9-4.2,3.4-5.9
		c1.4-1.6,3.2-2.9,5.2-3.8C154.1,38.6,156.4,38.1,158.9,38.1z M158.9,73.9c1.9,0,3.8-0.3,5.6-1c1.8-0.7,3.4-1.7,4.8-3.1
		c1.4-1.4,2.5-3.2,3.4-5.3c0.9-2.2,1.3-4.7,1.3-7.7c0-3-0.4-5.5-1.3-7.7c-0.9-2.2-2-4-3.4-5.4c-1.4-1.4-3-2.5-4.8-3.2
		c-1.8-0.7-3.7-1-5.6-1c-1.9,0-3.8,0.3-5.6,1c-1.8,0.7-3.4,1.7-4.8,3.2c-1.4,1.4-2.5,3.2-3.4,5.4c-0.9,2.2-1.3,4.7-1.3,7.7
		c0,3,0.4,5.5,1.3,7.7c0.9,2.2,2,3.9,3.4,5.3c1.4,1.4,3,2.5,4.8,3.1C155.1,73.6,156.9,73.9,158.9,73.9z"/>
	<path class="st3" d="M195.7,38.1c1.9,0,3.7,0.3,5.3,0.9c1.6,0.6,3,1.4,4.2,2.5c1.2,1,2.2,2.3,3,3.8c0.8,1.5,1.3,3.1,1.6,4.8h-1.5
		c-0.6-3.2-1.9-5.8-4.1-7.7c-2.2-1.9-5-2.9-8.7-2.9c-1.7,0-3.4,0.3-5.1,1c-1.7,0.7-3.3,1.7-4.7,3.1c-1.4,1.4-2.5,3.2-3.4,5.3
		c-0.9,2.1-1.3,4.6-1.3,7.4c0,3,0.4,5.6,1.2,7.8c0.8,2.2,1.9,4,3.2,5.5c1.3,1.5,2.8,2.5,4.5,3.2c1.7,0.7,3.5,1.1,5.2,1.1
		c1.5,0,3-0.2,4.4-0.7c1.4-0.4,2.7-1.1,3.8-1.9c1.1-0.9,2.1-1.9,2.9-3.2c0.8-1.3,1.4-2.7,1.7-4.3h1.5c-0.7,3.6-2.4,6.4-5,8.5
		c-2.6,2.1-5.7,3.1-9.4,3.1c-2.2,0-4.2-0.4-6.1-1.2c-1.9-0.8-3.6-2-5-3.6c-1.4-1.6-2.5-3.5-3.4-5.8c-0.8-2.3-1.2-4.9-1.2-7.9
		c0-2.9,0.4-5.4,1.3-7.7c0.9-2.3,2-4.2,3.5-5.8c1.5-1.6,3.2-2.9,5.2-3.7C191.4,38.5,193.5,38.1,195.7,38.1z"/>
	<path class="st3" d="M218.5,59.9v14.5H217V25h1.5v33.2L239.3,39h2.2l-18.8,17.1l18.9,18.2h-2.2l-17.9-17.2L218.5,59.9z"/>
	<path class="st4" d="M266.4,28.4c1.6,0.2,3,0.5,4.4,1.1c1.4,0.6,2.6,1.3,3.6,2.3c1,1,1.8,2.2,2.4,3.6c0.6,1.4,0.9,3.1,0.9,5.1
		c0,2-0.3,3.8-0.9,5.3c-0.6,1.5-1.4,2.8-2.4,3.8c-1,1-2.2,1.8-3.6,2.5c-1.4,0.6-2.8,1-4.4,1.2c-1.1,0.1-2.2,0.2-3.3,0.3
		c-1.1,0-2.2,0.1-3.4,0.1h-8.8v20.7h-1.5V28h10.3c1.2,0,2.3,0,3.4,0.1C264.2,28.1,265.3,28.2,266.4,28.4z M266.1,51.9
		c1.4-0.2,2.7-0.5,3.9-1c1.2-0.5,2.2-1.2,3.1-2.2c0.9-0.9,1.6-2.1,2.1-3.4s0.7-2.9,0.7-4.8c0-1.7-0.2-3.2-0.7-4.5
		c-0.5-1.3-1.2-2.3-2.1-3.2s-1.9-1.6-3.1-2.1c-1.2-0.5-2.5-0.8-3.9-1c-1.1-0.1-2.1-0.2-3.1-0.3c-1,0-2.1-0.1-3.3-0.1h-8.8v22.9h8.8
		c1.2,0,2.3,0,3.3-0.1C264,52.2,265.1,52.1,266.1,51.9z"/>
	<path class="st4" d="M308.6,74.4h-1.5v-8.1l-1.4,3.5c-1.3,1.9-2.9,3.3-4.9,4.2s-4,1.3-6.2,1.3c-3.6,0-6.4-0.9-8.5-2.8
		s-3.3-4.6-3.7-8.1c-0.1-0.9-0.2-1.7-0.2-2.5c0-0.8-0.1-1.9-0.1-3.3V39h1.5v19c0,1.3,0,2.3,0.1,3.2s0.1,1.8,0.2,2.7
		c0.4,3,1.4,5.4,3.1,7.3c1.7,1.8,4.2,2.8,7.6,2.8c1.6,0,3.2-0.3,4.7-0.8c1.5-0.6,2.8-1.4,4-2.6c1.2-1.2,2.1-2.6,2.8-4.4
		c0.7-1.7,1-3.8,1-6.1V39h1.5V74.4z"/>
	<path class="st4" d="M327.8,38.1c1.8,0,3.4,0.3,4.8,0.8c1.4,0.6,2.6,1.3,3.5,2.3c1,0.9,1.7,2,2.3,3.3c0.6,1.3,1,2.7,1.2,4.1h-1.4
		c-0.8-3.1-2-5.4-3.7-6.9c-1.7-1.5-4-2.3-6.9-2.3c-1.2,0-2.4,0.2-3.5,0.5c-1.1,0.4-2.2,0.9-3,1.5c-0.9,0.7-1.6,1.5-2.1,2.5
		c-0.5,1-0.8,2.2-0.8,3.5c0,1.3,0.2,2.3,0.7,3.2c0.5,0.9,1.1,1.6,2,2.3c0.8,0.7,1.9,1.2,3,1.6c1.2,0.4,2.5,0.8,3.9,1.1
		c4.1,0.9,7.1,2.1,9.1,3.6c2,1.5,3,3.7,3,6.7c0,1.4-0.3,2.7-0.9,3.8c-0.6,1.1-1.4,2.1-2.4,2.9c-1.1,0.8-2.3,1.4-3.8,1.9
		s-3,0.7-4.8,0.7c-1.7,0-3.2-0.2-4.7-0.6c-1.5-0.4-2.8-1.1-4-2.1c-1.2-0.9-2.2-2.1-2.9-3.6c-0.8-1.4-1.3-3.2-1.5-5.2h1.5
		c0.3,1.9,0.8,3.5,1.5,4.7s1.6,2.3,2.6,3.1c1,0.8,2.2,1.3,3.5,1.7c1.3,0.3,2.7,0.5,4.2,0.5c1.4,0,2.7-0.2,3.9-0.5s2.3-0.8,3.3-1.5
		c0.9-0.6,1.7-1.5,2.2-2.5c0.5-1,0.8-2.1,0.8-3.4c0-1.2-0.2-2.3-0.6-3.2c-0.4-0.9-1-1.7-1.9-2.4s-2-1.3-3.5-1.8
		c-1.5-0.5-3.2-1.1-5.3-1.5c-1.4-0.3-2.7-0.7-4-1.2c-1.3-0.5-2.4-1.1-3.4-1.8c-1-0.7-1.7-1.6-2.3-2.7c-0.6-1.1-0.8-2.4-0.8-3.8
		c0-1.3,0.3-2.6,0.8-3.8c0.5-1.2,1.3-2.2,2.3-3c1-0.9,2.1-1.5,3.5-2C324.7,38.3,326.2,38.1,327.8,38.1z"/>
	<path class="st4" d="M373.5,49c0.1,0.9,0.2,1.7,0.2,2.5c0,0.8,0.1,1.9,0.1,3.3v19.6h-1.5v-19c0-1.3,0-2.3-0.1-3.2
		c0-0.9-0.1-1.8-0.2-2.7c-0.4-3-1.4-5.4-3.1-7.3c-1.7-1.8-4.2-2.8-7.6-2.8c-1.6,0-3.2,0.3-4.7,0.8c-1.5,0.6-2.8,1.4-4,2.6
		c-1.2,1.2-2.1,2.6-2.8,4.3c-0.7,1.7-1,3.8-1,6.1v21h-1.5V24.7h1.5v22.5l1.4-3.5c1.3-1.9,2.9-3.3,4.9-4.2c1.9-0.9,4-1.3,6.2-1.3
		c3.6,0,6.4,0.9,8.5,2.8C372,42.8,373.2,45.5,373.5,49z"/>
</g>
</svg>
