<?xml version="1.0" encoding="utf-8"?>
<!-- Generator: Adobe Illustrator 20.0.0, SVG Export Plug-In . SVG Version: 6.00 Build 0)  -->
<svg version="1.1" id="Layer_1" xmlns="http://www.w3.org/2000/svg" xmlns:xlink="http://www.w3.org/1999/xlink" x="0px" y="0px"
	 viewBox="0 0 50 50" style="enable-background:new 0 0 50 50;" xml:space="preserve">
<style type="text/css">
	.st0{fill:#D0D9E4;}
	.st1{fill:#31479B;}
	.st2{fill:#4BA5DC;}
</style>
<g>
	<path class="st0" d="M31.1,6.6H18.9c-1.7,0-3.1,1.4-3.1,3.1v10.8c0,1.7,1.4,3.1,3.1,3.1h12.2c1.7,0,3.1-1.4,3.1-3.1l0,0V9.8
		C34.2,8,32.8,6.6,31.1,6.6z M25,17.9c-1.6,0-2.8-1.2-2.8-2.8s1.2-2.8,2.8-2.8c1.6,0,2.8,1.2,2.8,2.8S26.5,17.9,25,17.9z"/>
	<path class="st1" d="M8.3,43.4h12.1c1.7,0,3.1-1.4,3.1-3.1l0,0V29.5c0-1.7-1.4-3.1-3.1-3.1l0,0H8.3c-1.7,0-3.1,1.4-3.1,3.1l0,0
		v10.8C5.2,42,6.6,43.4,8.3,43.4L8.3,43.4z M11.2,36.3l2.4-3.8c0.3-0.4,0.8-0.6,1.2-0.3c0.1,0.1,0.2,0.1,0.3,0.3l2.4,3.8
		c0.3,0.4,0.2,0.9-0.2,1.2c-0.1,0.1-0.4,0.1-0.5,0.1H12c-0.5,0-0.9-0.4-0.9-0.9C11.1,36.6,11.1,36.5,11.2,36.3z"/>
	<path class="st2" d="M41.7,26.4H29.5c-1.7,0-3.1,1.4-3.1,3.1l0,0v10.7c0,1.7,1.4,3.1,3.1,3.1l0,0h12.2c1.7,0,3.1-1.4,3.1-3.1l0,0
		V29.5C44.7,27.8,43.4,26.4,41.7,26.4L41.7,26.4z M38.4,36.5c0,0.7-0.5,1.2-1.2,1.2l0,0h-3.3c-0.7,0-1.2-0.5-1.2-1.2l0,0v-3.3
		c0-0.7,0.5-1.2,1.2-1.2l0,0h3.3c0.7,0,1.2,0.5,1.2,1.2l0,0V36.5z"/>
</g>
</svg>
